<svg height="512pt" viewBox="-4 0 512 512" width="512pt" xmlns="http://www.w3.org/2000/svg"><path d="m341.359375 480h-325.359375c-4.398438 0-8-3.601562-8-8v-56c0-35.359375 28.640625-64 64-64h48l24 16 32-16 32 16 24-16h48c8.480469 0 16.558594 1.679688 24 4.640625v51.359375c0 29.761719 14.71875 56.078125 37.359375 72zm0 0" fill="#fff"/><path d="m232 306.160156v45.839844l-24 16-32-16-32 16-24-16v-45.839844c16.71875 8.808594 35.761719 13.839844 56 13.839844s39.28125-5.039062 56-13.839844zm0 0" fill="#fff"/><path d="m296 104v48l-32-32s-40 24-88 24-88-24-88-24l-32 32v-40c0-57.519531 46.480469-104 104-104h80v40c30.960938 0 56 25.039062 56 56zm0 0" fill="#94c1ff"/><path d="m240 48v-40h-32v56c30.960938 0 56 17.039062 56 48v8l32 32v-48c0-30.960938-25.039062-56-56-56zm0 0" fill="#5c9eff"/><path d="m296 152v48c0 46.078125-25.921875 86.078125-64 106.160156-16.71875 8.808594-35.761719 13.839844-56 13.839844s-39.28125-5.039062-56-13.839844c-38.078125-20.082031-64-60.082031-64-106.160156v-48l32-32s40 24 88 24 88-24 88-24zm0 0" fill="#d7e9ff"/><path d="m264 120v80c0 46.078125-25.921875 86.078125-64 106.160156-12.230469 6.449219-25.71875 10.839844-40 12.75 5.230469.707032 10.566406 1.097656 16 1.097656 20.238281 0 39.28125-5.039062 56-13.839843 38.078125-20.078125 64-60.078125 64-106.160157v-48zm0 0" fill="#94c1ff"/><path d="m392 496c-18.878906 0-36.320312-5.921875-50.640625-16-22.640625-15.921875-37.359375-42.238281-37.359375-72v-136c0 8.878906 7.121094 16 16 16h48c17.679688 0 32-14.320312 32-32 0 17.679688 14.320312 32 32 32h48c8.878906 0 16-7.121094 16-16v136c0 48.640625-39.359375 88-88 88-4.398438 0-8 3.601562-8 8 0-4.398438-3.601562-8-8-8zm0 0" fill="#d7e9ff"/><path d="m480 288h-8v120c0 66.335938-64 88-64 88 48.640625 0 88-39.359375 88-88v-136c0 8.878906-7.121094 16-16 16zm0 0" fill="#94c1ff"/><g fill="#116fff"><path d="m8 424.007812c-4.425781 0-8-3.574218-8-8 0-39.703124 32.296875-72 72-72 4.425781 0 8 3.578126 8 8 0 4.425782-3.574219 8-8 8-30.871094 0-56 25.128907-56 56 0 4.425782-3.574219 8-8 8zm0 0"/><path d="m303.984375 364.65625c-1 0-2.015625-.183594-3-.585938-6.648437-2.6875-13.703125-4.054687-20.984375-4.054687-4.425781 0-8-3.574219-8-8 0-4.421875 3.574219-8 8-8 9.34375 0 18.433594 1.761719 26.984375 5.222656 4.105469 1.65625 6.070313 6.320313 4.414063 10.417969-1.253907 3.121094-4.253907 5-7.414063 5zm0 0"/><path d="m120 360.015625-48-.007813c-4.425781 0-8-3.582031-8-8 0-4.421874 3.585938-8 8-8l48 .007813c4.425781 0 8 3.585937 8 8 0 4.425781-3.585938 8-8 8zm0 0"/><path d="m280 360.015625-48-.015625c-4.425781 0-8-3.585938-8-8 0-4.425781 3.585938-8 8-8l48 .015625c4.425781 0 8 3.585937 8 8 0 4.425781-3.585938 8-8 8zm0 0"/><path d="m8.007812 480c-4.414062 0-7.9999995-3.574219-7.9999995-8l-.0078125-55.992188c0-4.414062 3.574219-8 8-8 4.414062 0 8 3.578126 8 8l.007812 55.992188c0 4.414062-3.574218 8-8 8zm0 0"/><path d="m16.007812 488c-8.824218 0-15.9999995-7.175781-15.9999995-16 0-4.425781 3.5781255-8 7.9999995-8 4.425782 0 8 3.574219 8 8v.015625c4.425782 0 8 3.570313 8 7.992187 0 4.417969-3.574218 7.992188-8 7.992188zm0 0"/><path d="m341.367188 488h-325.359376c-4.421874 0-8-3.574219-8-8s3.578126-8 8-8h325.359376c4.425781 0 8 3.574219 8 8s-3.574219 8-8 8zm0 0"/><path d="m120 360.015625c-4.425781 0-8-3.574219-8-8v-45.847656c0-4.425781 3.574219-8 8-8s8 3.574219 8 8v45.847656c0 4.425781-3.574219 8-8 8zm0 0"/><path d="m232 360c-4.425781 0-8-3.574219-8-8v-45.832031c0-4.425781 3.574219-8 8-8s8 3.574219 8 8v45.832031c0 4.425781-3.574219 8-8 8zm0 0"/><path d="m176 328.007812c-70.574219 0-128-57.421874-128-128 0-4.421874 3.574219-8 8-8s8 3.578126 8 8c0 61.761719 50.238281 112 112 112s112-50.238281 112-112c0-4.421874 3.574219-8 8-8s8 3.578126 8 8c0 70.578126-57.425781 128-128 128zm0 0"/><path d="m56 208.007812c-4.425781 0-8-3.574218-8-8v-88.007812c0-4.425781 3.574219-8 8-8s8 3.574219 8 8v88.007812c0 4.425782-3.574219 8-8 8zm0 0"/><path d="m296 208.007812c-4.425781 0-8-3.574218-8-8v-95.992187c0-4.421875 3.574219-8 8-8s8 3.578125 8 8v95.992187c0 4.425782-3.574219 8-8 8zm0 0"/><path d="m296 112.015625c-4.425781 0-8-3.574219-8-8 0-26.472656-21.527344-48-48-48-4.425781 0-8-3.574219-8-8 0-4.421875 3.574219-8 8-8 35.289062 0 64 28.710937 64 64 0 4.425781-3.574219 8-8 8zm0 0"/><path d="m240 56.015625c-4.425781 0-8-3.574219-8-8v-40.015625c0-4.425781 3.574219-8 8-8s8 3.574219 8 8v40.015625c0 4.425781-3.574219 8-8 8zm0 0"/><path d="m240 16h-80c-4.425781 0-8-3.574219-8-8s3.574219-8 8-8h80c4.425781 0 8 3.574219 8 8s-3.574219 8-8 8zm0 0"/><path d="m56 120c-4.425781 0-8-3.574219-8-8 0-61.761719 50.238281-112 112-112 4.425781 0 8 3.574219 8 8s-3.574219 8-8 8c-52.9375 0-96 43.0625-96 96 0 4.425781-3.574219 8-8 8zm0 0"/><path d="m296 160c-2.046875 0-4.097656-.785156-5.65625-2.34375l-32-32c-3.128906-3.128906-3.128906-8.183594 0-11.3125s8.183594-3.128906 11.3125 0l32 32c3.128906 3.128906 3.128906 8.183594 0 11.3125-1.558594 1.558594-3.609375 2.34375-5.65625 2.34375zm0 0"/><path d="m176 152c-49.648438 0-90.40625-24.121094-92.121094-25.144531-3.78125-2.269531-5.007812-7.175781-2.742187-10.96875 2.261719-3.78125 7.152343-5.023438 10.96875-2.757813.390625.238282 38.804687 22.871094 83.894531 22.871094s83.503906-22.632812 83.886719-22.863281c3.824219-2.265625 8.707031-1.023438 10.96875 2.757812 2.265625 3.792969 1.039062 8.699219-2.742188 10.96875-1.707031 1.015625-42.464843 25.136719-92.113281 25.136719zm0 0"/><path d="m56 160c-2.046875 0-4.097656-.785156-5.65625-2.34375-3.128906-3.128906-3.128906-8.183594 0-11.3125l32-32c3.128906-3.128906 8.183594-3.128906 11.3125 0s3.128906 8.183594 0 11.3125l-32 32c-1.558594 1.558594-3.609375 2.34375-5.65625 2.34375zm0 0"/><path d="m143.992188 376c-1.519532 0-3.0625-.441406-4.433594-1.34375l-24-15.984375c-3.671875-2.449219-4.671875-7.414063-2.214844-11.097656 2.449219-3.679688 7.398438-4.671875 11.097656-2.214844l24 15.984375c3.671875 2.449219 4.671875 7.417969 2.214844 11.097656-1.535156 2.3125-4.082031 3.558594-6.664062 3.558594zm0 0"/><path d="m144.007812 376c-2.9375 0-5.761718-1.617188-7.167968-4.425781-1.976563-3.949219-.375-8.757813 3.574218-10.734375l32-16c3.953126-1.960938 8.753907-.375 10.738282 3.574218 1.976562 3.953126.375 8.761719-3.578125 10.738282l-32 16c-1.140625.574218-2.367188.847656-3.566407.847656zm0 0"/><path d="m208.007812 376c-2.582031 0-5.128906-1.246094-6.664062-3.558594-2.457031-3.679687-1.457031-8.648437 2.214844-11.097656l24-15.984375c3.6875-2.457031 8.640625-1.464844 11.097656 2.214844 2.457031 3.683593 1.457031 8.648437-2.214844 11.097656l-24 15.984375c-1.371094.902344-2.914062 1.34375-4.433594 1.34375zm0 0"/><path d="m207.992188 376c-1.199219 0-2.425782-.273438-3.566407-.839844l-32-16c-3.953125-1.976562-5.554687-6.785156-3.578125-10.734375 1.976563-3.953125 6.785156-5.539062 10.738282-3.578125l32 16c3.949218 1.976563 5.550781 6.785156 3.574218 10.738282-1.40625 2.796874-4.230468 4.414062-7.167968 4.414062zm0 0"/><path d="m176.238281 408c-4.421875 0-8.039062-3.574219-8.039062-8s3.535156-8 7.953125-8h.085937c4.417969 0 8 3.574219 8 8s-3.582031 8-8 8zm0 0"/><path d="m176.238281 448c-4.421875 0-8.039062-3.574219-8.039062-8s3.535156-8 7.953125-8h.085937c4.417969 0 8 3.574219 8 8s-3.582031 8-8 8zm0 0"/><path d="m368 296c-4.425781 0-8-3.574219-8-8s3.574219-8 8-8c13.230469 0 24-10.769531 24-24 0-4.425781 3.574219-8 8-8s8 3.574219 8 8c0 22.054688-17.945312 40-40 40zm0 0"/><path d="m432 296c-22.054688 0-40-17.945312-40-40 0-4.425781 3.574219-8 8-8s8 3.574219 8 8c0 13.230469 10.769531 24 24 24 4.425781 0 8 3.574219 8 8s-3.574219 8-8 8zm0 0"/><path d="m320 296c-13.230469 0-24-10.769531-24-24 0-4.425781 3.574219-8 8-8s8 3.574219 8 8c0 4.414062 3.585938 8 8 8 4.425781 0 8 3.574219 8 8s-3.574219 8-8 8zm0 0"/><path d="m368 296h-48c-4.425781 0-8-3.574219-8-8s3.574219-8 8-8h48c4.425781 0 8 3.574219 8 8s-3.574219 8-8 8zm0 0"/><path d="m304 416c-4.425781 0-8-3.574219-8-8v-136c0-4.425781 3.574219-8 8-8s8 3.574219 8 8v136c0 4.425781-3.574219 8-8 8zm0 0"/><path d="m480 296c-4.425781 0-8-3.574219-8-8s3.574219-8 8-8c4.414062 0 8-3.585938 8-8 0-4.425781 3.574219-8 8-8s8 3.574219 8 8c0 13.230469-10.769531 24-24 24zm0 0"/><path d="m480 296h-48c-4.425781 0-8-3.574219-8-8s3.574219-8 8-8h48c4.425781 0 8 3.574219 8 8s-3.574219 8-8 8zm0 0"/><path d="m496 416c-4.425781 0-8-3.574219-8-8v-136c0-4.425781 3.574219-8 8-8s8 3.574219 8 8v136c0 4.425781-3.574219 8-8 8zm0 0"/><path d="m392 504c-52.9375 0-96-43.0625-96-96 0-4.425781 3.574219-8 8-8s8 3.574219 8 8c0 44.113281 35.886719 80 80 80 4.425781 0 8 3.574219 8 8s-3.574219 8-8 8zm0 0"/><path d="m400 512c-4.425781 0-8-3.574219-8-8v-.015625c-4.425781 0-8-3.570313-8-7.992187 0-4.417969 3.574219-7.992188 8-7.992188 8.824219 0 16 7.175781 16 16 0 4.425781-3.574219 8-8 8zm0 0"/><path d="m408 504c-4.425781 0-8-3.574219-8-8s3.574219-8 8-8c44.113281 0 80-35.886719 80-80 0-4.425781 3.574219-8 8-8s8 3.574219 8 8c0 52.9375-43.0625 96-96 96zm0 0"/><path d="m400 512c-4.425781 0-8-3.574219-8-8 0-8.824219 7.175781-16 16-16 4.425781 0 8 3.574219 8 8s-3.574219 8-8 8c0 4.425781-3.574219 8-8 8zm0 0"/><path d="m400 448c-4.425781 0-8-3.574219-8-8v-96c0-4.425781 3.574219-8 8-8s8 3.574219 8 8v96c0 4.425781-3.574219 8-8 8zm0 0"/></g></svg>