<svg height="512pt" viewBox="0 0 512 512" width="512pt" xmlns="http://www.w3.org/2000/svg"><path d="m287.4375 179.199219-8.082031-34.132813h-37.050781l-8.765626 34.132813zm0 0" fill="#a4c2f7"/><path d="m187.734375 8.535156h136.53125c9.425781 0 17.066406 7.640625 17.066406 17.066406v102.398438c0 9.425781-7.640625 17.066406-17.066406 17.066406h-136.53125c-9.425781 0-17.066406-7.640625-17.066406-17.066406v-102.398438c0-9.425781 7.640625-17.066406 17.066406-17.066406zm0 0" fill="#a4c2f7"/><path d="m187.734375 8.535156h110.933594c9.425781 0 17.066406 7.640625 17.066406 17.066406v102.398438c0 9.425781-7.640625 17.066406-17.066406 17.066406h-110.933594c-9.425781 0-17.066406-7.640625-17.066406-17.066406v-102.398438c0-9.425781 7.640625-17.066406 17.066406-17.066406zm0 0" fill="#e3e7f2"/><path d="m452.265625 503.464844-7.679687-34.132813h-35.199219l-8.320313 34.132813zm0 0" fill="#a4c2f7"/><path d="m358.398438 332.800781h128c9.425781 0 17.066406 7.640625 17.066406 17.066407v102.398437c0 9.425781-7.640625 17.066406-17.066406 17.066406h-128c-9.425782 0-17.066407-7.640625-17.066407-17.066406v-102.398437c0-9.425782 7.640625-17.066407 17.066407-17.066407zm0 0" fill="#a4c2f7"/><path d="m358.398438 332.800781h102.402343c9.425781 0 17.066407 7.640625 17.066407 17.066407v102.398437c0 9.425781-7.640626 17.066406-17.066407 17.066406h-102.402343c-9.425782 0-17.066407-7.640625-17.066407-17.066406v-102.398437c0-9.425782 7.640625-17.066407 17.066407-17.066407zm0 0" fill="#e3e7f2"/><path d="m119.464844 503.464844-7.679688-34.132813h-35.199218l-8.320313 34.132813zm0 0" fill="#a4c2f7"/><path d="m25.601562 332.800781h128c9.425782 0 17.066407 7.640625 17.066407 17.066407v102.398437c0 9.425781-7.640625 17.066406-17.066407 17.066406h-128c-9.425781 0-17.066406-7.640625-17.066406-17.066406v-102.398437c0-9.425782 7.640625-17.066407 17.066406-17.066407zm0 0" fill="#e3e7f2"/><path d="m315.734375 236.375v45.226562c-.09375 26.402344-12.378906 51.28125-33.28125 67.410157l-23.464844 16.984375c-1.785156 1.28125-4.191406 1.28125-5.976562 0l-9.8125-7.085938-13.652344-9.898437c-20.902344-16.128907-33.1875-41.007813-33.28125-67.410157v-45.226562c-.054687-3.664062 2.304687-6.929688 5.804687-8.023438 13.394532-3.832031 27.207032-6.039062 41.128907-6.570312 4.097656-.257812 8.449219-.425781 12.800781-.425781 18.214844-.21875 36.375 2.136719 53.929688 6.996093 3.5 1.09375 5.859374 4.359376 5.804687 8.023438zm0 0" fill="#a4c2f7"/><path d="m290.132812 236.375v45.226562c-.09375 26.402344-12.375 51.28125-33.28125 67.410157l-13.652343 9.898437-13.652344-9.898437c-20.902344-16.128907-33.1875-41.007813-33.28125-67.410157v-45.226562c-.054687-3.664062 2.304687-6.929688 5.804687-8.023438 13.394532-3.832031 27.207032-6.039062 41.128907-6.570312 13.925781.53125 27.734375 2.738281 41.132812 6.570312 3.496094 1.09375 5.859375 4.359376 5.800781 8.023438zm0 0" fill="#e3e7f2"/><path d="m247.464844 281.601562h17.070312c9.425782 0 17.066406 7.640626 17.066406 17.066407s-7.640624 17.066406-17.066406 17.066406h-17.070312c-9.425782 0-17.066406-7.640625-17.066406-17.066406s7.640624-17.066407 17.066406-17.066407zm0 0" fill="#e3e7f2"/><path d="m51.199219 332.800781h-25.597657c-9.425781 0-17.066406 7.640625-17.066406 17.066407v102.398437c0 9.425781 7.640625 17.066406 17.066406 17.066406h25.597657c-9.425781 0-17.066407-7.640625-17.066407-17.066406v-102.398437c0-9.425782 7.640626-17.066407 17.066407-17.066407zm0 0" fill="#fff"/><path d="m119.464844 503.464844h-25.597656l8.320312-34.132813h-25.601562l-8.320313 34.132813zm0 0" fill="#fff"/><path d="m196.265625 128v-102.398438c.027344-9.414062 7.652344-17.039062 17.066406-17.066406h-25.597656c-9.414063.027344-17.039063 7.652344-17.066406 17.066406v102.398438c.027343 9.414062 7.652343 17.039062 17.066406 17.066406h25.597656c-9.414062-.027344-17.039062-7.652344-17.066406-17.066406zm0 0" fill="#fff"/><g fill="#428dff"><path d="m287.4375 187.734375h-53.890625c-2.636719 0-5.128906-1.21875-6.746094-3.304687-1.617187-2.082032-2.179687-4.800782-1.519531-7.355469l8.753906-34.132813c.972656-3.789062 4.398438-6.429687 8.3125-6.40625h37.050782c3.957031 0 7.394531 2.71875 8.304687 6.570313l8.078125 34.132812c.601562 2.542969.003906 5.226563-1.625 7.273438s-4.105469 3.234375-6.71875 3.222656zm-42.890625-17.066406h32.09375l-4.035156-17.066407h-23.6875zm0 0"/><path d="m324.265625 153.601562h-136.53125c-14.140625 0-25.601563-11.464843-25.601563-25.601562v-102.398438c0-14.140624 11.460938-25.601562 25.601563-25.601562h136.53125c14.140625 0 25.601563 11.460938 25.601563 25.601562v102.398438c0 14.136719-11.460938 25.601562-25.601563 25.601562zm-136.53125-136.535156c-4.714844 0-8.535156 3.820313-8.535156 8.535156v102.398438c0 4.710938 3.820312 8.535156 8.535156 8.535156h136.53125c4.714844 0 8.535156-3.824218 8.535156-8.535156v-102.398438c0-4.714843-3.820312-8.535156-8.535156-8.535156zm0 0"/><path d="m324.265625 153.601562h-136.53125c-14.140625 0-25.601563-11.464843-25.601563-25.601562v-102.398438c0-14.140624 11.460938-25.601562 25.601563-25.601562h136.53125c14.140625 0 25.601563 11.460938 25.601563 25.601562v102.398438c0 14.136719-11.460938 25.601562-25.601563 25.601562zm-136.53125-136.535156c-4.714844 0-8.535156 3.820313-8.535156 8.535156v102.398438c0 4.710938 3.820312 8.535156 8.535156 8.535156h136.53125c4.714844 0 8.535156-3.824218 8.535156-8.535156v-102.398438c0-4.714843-3.820312-8.535156-8.535156-8.535156zm0 0"/><path d="m305.40625 51.199219h-98.8125c-4.714844 0-8.535156-3.820313-8.535156-8.53125 0-4.714844 3.820312-8.535157 8.535156-8.535157h98.8125c4.714844 0 8.535156 3.820313 8.535156 8.535157 0 4.710937-3.820312 8.53125-8.535156 8.53125zm0 0"/><path d="m305.40625 85.332031h-98.8125c-4.714844 0-8.535156-3.820312-8.535156-8.53125 0-4.714843 3.820312-8.535156 8.535156-8.535156h98.8125c4.714844 0 8.535156 3.820313 8.535156 8.535156 0 4.710938-3.820312 8.53125-8.535156 8.53125zm0 0"/><path d="m250.511719 119.464844h-43.917969c-4.714844 0-8.535156-3.820313-8.535156-8.53125 0-4.714844 3.820312-8.535156 8.535156-8.535156h43.917969c4.714843 0 8.535156 3.820312 8.535156 8.535156 0 4.710937-3.820313 8.53125-8.535156 8.53125zm0 0"/><path d="m323.414062 187.734375h-125.800781c-4.710937 0-8.53125-3.820313-8.53125-8.535156 0-4.710938 3.820313-8.53125 8.53125-8.53125h125.800781c4.710938 0 8.53125 3.820312 8.53125 8.53125 0 4.714843-3.820312 8.535156-8.53125 8.535156zm0 0"/><path d="m452.265625 512h-51.199219c-2.621094 0-5.09375-1.199219-6.714844-3.261719-1.617187-2.058593-2.199218-4.75-1.578124-7.292969l8.320312-34.132812c.929688-3.824219 4.359375-6.515625 8.292969-6.511719h35.199219c3.992187-.003906 7.453124 2.761719 8.328124 6.65625l7.679688 34.132813c.570312 2.53125-.039062 5.183594-1.660156 7.207031-1.621094 2.027344-4.074219 3.203125-6.667969 3.203125zm-40.335937-17.066406h29.671874l-3.839843-17.066406h-21.667969zm0 0"/><path d="m486.398438 477.867188h-128c-14.136719 0-25.597657-11.460938-25.597657-25.601563v-102.398437c0-14.140626 11.460938-25.601563 25.597657-25.601563h128c14.140624 0 25.601562 11.460937 25.601562 25.601563v102.398437c0 14.140625-11.460938 25.601563-25.601562 25.601563zm-128-136.535157c-4.710938 0-8.53125 3.820313-8.53125 8.535157v102.398437c0 4.714844 3.820312 8.535156 8.53125 8.535156h128c4.714843 0 8.535156-3.820312 8.535156-8.535156v-102.398437c0-4.714844-3.820313-8.535157-8.535156-8.535157zm0 0"/><path d="m486.398438 477.867188h-128c-14.136719 0-25.597657-11.460938-25.597657-25.601563v-102.398437c0-14.140626 11.460938-25.601563 25.597657-25.601563h128c14.140624 0 25.601562 11.460937 25.601562 25.601563v102.398437c0 14.140625-11.460938 25.601563-25.601562 25.601563zm-128-136.535157c-4.710938 0-8.53125 3.820313-8.53125 8.535157v102.398437c0 4.714844 3.820312 8.535156 8.53125 8.535156h128c4.714843 0 8.535156-3.820312 8.535156-8.535156v-102.398437c0-4.714844-3.820313-8.535157-8.535156-8.535157zm0 0"/><path d="m469.332031 375.464844h-93.867187c-4.710938 0-8.53125-3.820313-8.53125-8.53125 0-4.714844 3.820312-8.535156 8.53125-8.535156h93.867187c4.714844 0 8.535157 3.820312 8.535157 8.535156 0 4.710937-3.820313 8.53125-8.535157 8.53125zm0 0"/><path d="m469.332031 409.601562h-93.867187c-4.710938 0-8.53125-3.820312-8.53125-8.535156 0-4.710937 3.820312-8.53125 8.53125-8.53125h93.867187c4.714844 0 8.535157 3.820313 8.535157 8.53125 0 4.714844-3.820313 8.535156-8.535157 8.535156zm0 0"/><path d="m417.1875 443.734375h-41.722656c-4.710938 0-8.53125-3.820313-8.53125-8.535156 0-4.710938 3.820312-8.53125 8.53125-8.53125h41.722656c4.710938 0 8.53125 3.820312 8.53125 8.53125 0 4.714843-3.820312 8.535156-8.53125 8.535156zm0 0"/><path d="m486.398438 512h-119.464844c-4.714844 0-8.535156-3.820312-8.535156-8.535156 0-4.710938 3.820312-8.53125 8.535156-8.53125h119.464844c4.714843 0 8.535156 3.820312 8.535156 8.53125 0 4.714844-3.820313 8.535156-8.535156 8.535156zm0 0"/><path d="m119.464844 512h-51.199219c-2.617187 0-5.09375-1.199219-6.710937-3.261719-1.621094-2.058593-2.203126-4.75-1.582032-7.292969l8.320313-34.132812c.933593-3.824219 4.359375-6.515625 8.292969-6.511719h35.199218c3.992188-.003906 7.453125 2.761719 8.328125 6.65625l7.683594 34.132813c.570313 2.53125-.042969 5.183594-1.664063 7.207031-1.617187 2.027344-4.074218 3.203125-6.667968 3.203125zm-40.335938-17.066406h29.671875l-3.839843-17.066406h-21.667969zm0 0"/><path d="m153.601562 477.867188h-128c-14.140624 0-25.601562-11.460938-25.601562-25.601563v-102.398437c0-14.140626 11.460938-25.601563 25.601562-25.601563h128c14.136719 0 25.597657 11.460937 25.597657 25.601563v102.398437c0 14.140625-11.460938 25.601563-25.597657 25.601563zm-128-136.535157c-4.714843 0-8.535156 3.820313-8.535156 8.535157v102.398437c0 4.714844 3.820313 8.535156 8.535156 8.535156h128c4.710938 0 8.53125-3.820312 8.53125-8.535156v-102.398437c0-4.714844-3.820312-8.535157-8.53125-8.535157zm0 0"/><path d="m153.601562 477.867188h-128c-14.140624 0-25.601562-11.460938-25.601562-25.601563v-102.398437c0-14.140626 11.460938-25.601563 25.601562-25.601563h128c14.136719 0 25.597657 11.460937 25.597657 25.601563v102.398437c0 14.140625-11.460938 25.601563-25.597657 25.601563zm-128-136.535157c-4.714843 0-8.535156 3.820313-8.535156 8.535157v102.398437c0 4.714844 3.820313 8.535156 8.535156 8.535156h128c4.710938 0 8.53125-3.820312 8.53125-8.535156v-102.398437c0-4.714844-3.820312-8.535157-8.53125-8.535157zm0 0"/><path d="m136.535156 375.464844h-93.867187c-4.714844 0-8.535157-3.820313-8.535157-8.53125 0-4.714844 3.820313-8.535156 8.535157-8.535156h93.867187c4.710938 0 8.53125 3.820312 8.53125 8.535156 0 4.710937-3.820312 8.53125-8.53125 8.53125zm0 0"/><path d="m136.535156 409.601562h-93.867187c-4.714844 0-8.535157-3.820312-8.535157-8.535156 0-4.710937 3.820313-8.53125 8.535157-8.53125h93.867187c4.710938 0 8.53125 3.820313 8.53125 8.53125 0 4.714844-3.820312 8.535156-8.53125 8.535156zm0 0"/><path d="m84.386719 443.734375h-41.71875c-4.714844 0-8.535157-3.820313-8.535157-8.535156 0-4.710938 3.820313-8.53125 8.535157-8.53125h41.71875c4.710937 0 8.53125 3.820312 8.53125 8.53125 0 4.714843-3.820313 8.535156-8.53125 8.535156zm0 0"/><path d="m153.601562 512h-119.46875c-4.710937 0-8.53125-3.820312-8.53125-8.535156 0-4.710938 3.820313-8.53125 8.53125-8.53125h119.46875c4.710938 0 8.53125 3.820312 8.53125 8.53125 0 4.714844-3.820312 8.535156-8.53125 8.535156zm0 0"/><path d="m256 375.464844c-2.867188.007812-5.664062-.886719-7.996094-2.558594l-23.449218-16.921875c-23.160157-17.730469-36.765626-45.21875-36.820313-74.382813v-45.226562c-.050781-7.425781 4.757813-14.007812 11.84375-16.214844 18.371094-5.070312 37.363281-7.542968 56.421875-7.347656 19.058594-.195312 38.050781 2.28125 56.421875 7.355469 7.082031 2.207031 11.890625 8.785156 11.84375 16.207031v45.226562c-.058594 29.160157-13.660156 56.636719-36.8125 74.367188l-23.464844 16.9375c-2.328125 1.671875-5.125 2.566406-7.988281 2.558594zm-21.453125-33.355469 21.453125 15.503906 21.460938-15.488281c18.644531-14.566406 29.597656-36.863281 29.738281-60.523438v-45.226562c-16.683594-4.535156-33.914063-6.730469-51.199219-6.53125-17.347656-.199219-34.640625 2.019531-51.378906 6.589844l.179687 45.167968c.140625 23.660157 11.101563 45.957032 29.746094 60.523438zm0 0"/><path d="m264.535156 324.265625h-17.300781c-14.136719 0-25.597656-11.460937-25.597656-25.597656 0-14.140625 11.460937-25.601563 25.597656-25.601563h17.300781c14.136719 0 25.597656 11.460938 25.597656 25.601563 0 14.136719-11.460937 25.597656-25.597656 25.597656zm-17.300781-34.132813c-4.710937 0-8.53125 3.820313-8.53125 8.535157 0 4.710937 3.820313 8.53125 8.53125 8.53125h17.300781c4.710938 0 8.53125-3.820313 8.53125-8.53125 0-4.714844-3.820312-8.535157-8.53125-8.535157zm0 0"/><path d="m273.066406 290.132812h-34.132812c-4.714844 0-8.535156-3.820312-8.535156-8.53125v-16.949218c0-14.136719 11.464843-25.597656 25.601562-25.597656s25.601562 11.460937 25.601562 25.597656v16.949218c0 4.710938-3.820312 8.53125-8.535156 8.53125zm-25.601562-17.066406h17.070312v-8.414062c0-4.710938-3.824218-8.53125-8.535156-8.53125s-8.535156 3.820312-8.535156 8.53125zm0 0"/><path d="m384 85.332031h-8.535156c-4.710938 0-8.53125-3.820312-8.53125-8.53125 0-4.714843 3.820312-8.535156 8.53125-8.535156h8.535156c4.710938 0 8.535156 3.820313 8.535156 8.535156 0 4.710938-3.824218 8.53125-8.535156 8.53125zm0 0"/><path d="m426.667969 332.800781c-4.714844 0-8.535157-3.820312-8.535157-8.535156v-8.53125c0-4.714844 3.820313-8.535156 8.535157-8.535156 4.710937 0 8.53125 3.820312 8.53125 8.535156v8.53125c0 4.714844-3.820313 8.535156-8.53125 8.535156zm0 0"/><path d="m426.667969 290.132812c-4.714844 0-8.535157-3.820312-8.535157-8.53125v-17.066406c0-4.714844 3.820313-8.535156 8.535157-8.535156 4.710937 0 8.53125 3.820312 8.53125 8.535156v17.066406c0 4.710938-3.820313 8.53125-8.53125 8.53125zm0 0"/><path d="m426.667969 196.265625c-4.714844 0-8.535157-3.820313-8.535157-8.53125v-8.535156c0-4.710938 3.820313-8.53125 8.535157-8.53125 4.710937 0 8.53125 3.820312 8.53125 8.53125v8.535156c0 4.710937-3.820313 8.53125-8.53125 8.53125zm0 0"/><path d="m426.667969 238.933594c-4.714844 0-8.535157-3.820313-8.535157-8.535156v-8.53125c0-4.714844 3.820313-8.535157 8.535157-8.535157 4.710937 0 8.53125 3.820313 8.53125 8.535157v8.53125c0 4.714843-3.820313 8.535156-8.53125 8.535156zm0 0"/><path d="m426.667969 153.601562c-4.714844 0-8.535157-3.820312-8.535157-8.535156v-8.53125c0-4.714844 3.820313-8.535156 8.535157-8.535156 4.710937 0 8.53125 3.820312 8.53125 8.535156v8.53125c0 4.714844-3.820313 8.535156-8.53125 8.535156zm0 0"/><path d="m426.667969 110.933594c-4.714844 0-8.535157-3.820313-8.535157-8.535156v-25.597657c0-4.714843 3.820313-8.535156 8.535157-8.535156 4.710937 0 8.53125 3.820313 8.53125 8.535156v25.597657c0 4.714843-3.820313 8.535156-8.53125 8.535156zm0 0"/><path d="m426.667969 93.867188c-4.714844 0-8.535157-3.820313-8.535157-8.535157-4.710937 0-8.53125-3.820312-8.53125-8.53125 0-4.714843 3.820313-8.535156 8.53125-8.535156h8.535157c4.710937 0 8.53125 3.820313 8.53125 8.535156v8.53125c0 4.714844-3.820313 8.535157-8.53125 8.535157zm0 0"/><path d="m426.667969 281.601562h-17.066407c-4.714843 0-8.535156-3.820312-8.535156-8.535156 0-4.710937 3.820313-8.53125 8.535156-8.53125h17.066407c4.710937 0 8.53125 3.820313 8.53125 8.53125 0 4.714844-3.820313 8.535156-8.53125 8.535156zm0 0"/><path d="m375.464844 281.601562h-17.066406c-4.710938 0-8.53125-3.820312-8.53125-8.535156 0-4.710937 3.820312-8.53125 8.53125-8.53125h17.066406c4.714844 0 8.535156 3.820313 8.535156 8.53125 0 4.714844-3.820312 8.535156-8.535156 8.535156zm0 0"/><path d="m324.265625 281.601562h-8.53125c-4.714844 0-8.535156-3.820312-8.535156-8.535156 0-4.710937 3.820312-8.53125 8.535156-8.53125h8.53125c4.714844 0 8.535156 3.820313 8.535156 8.53125 0 4.714844-3.820312 8.535156-8.535156 8.535156zm0 0"/><path d="m136.535156 85.332031h-8.535156c-4.710938 0-8.535156-3.820312-8.535156-8.53125 0-4.714843 3.824218-8.535156 8.535156-8.535156h8.535156c4.710938 0 8.53125 3.820313 8.53125 8.535156 0 4.710938-3.820312 8.53125-8.53125 8.53125zm0 0"/><path d="m85.332031 332.800781c-4.710937 0-8.53125-3.820312-8.53125-8.535156v-8.53125c0-4.714844 3.820313-8.535156 8.53125-8.535156 4.714844 0 8.535157 3.820312 8.535157 8.535156v8.53125c0 4.714844-3.820313 8.535156-8.535157 8.535156zm0 0"/><path d="m85.332031 290.132812c-4.710937 0-8.53125-3.820312-8.53125-8.53125v-17.066406c0-4.714844 3.820313-8.535156 8.53125-8.535156 4.714844 0 8.535157 3.820312 8.535157 8.535156v17.066406c0 4.710938-3.820313 8.53125-8.535157 8.53125zm0 0"/><path d="m85.332031 196.265625c-4.710937 0-8.53125-3.820313-8.53125-8.53125v-8.535156c0-4.710938 3.820313-8.53125 8.53125-8.53125 4.714844 0 8.535157 3.820312 8.535157 8.53125v8.535156c0 4.710937-3.820313 8.53125-8.535157 8.53125zm0 0"/><path d="m85.332031 238.933594c-4.710937 0-8.53125-3.820313-8.53125-8.535156v-8.53125c0-4.714844 3.820313-8.535157 8.53125-8.535157 4.714844 0 8.535157 3.820313 8.535157 8.535157v8.53125c0 4.714843-3.820313 8.535156-8.535157 8.535156zm0 0"/><path d="m85.332031 153.601562c-4.710937 0-8.53125-3.820312-8.53125-8.535156v-8.53125c0-4.714844 3.820313-8.535156 8.53125-8.535156 4.714844 0 8.535157 3.820312 8.535157 8.535156v8.53125c0 4.714844-3.820313 8.535156-8.535157 8.535156zm0 0"/><path d="m85.332031 110.933594c-4.710937 0-8.53125-3.820313-8.53125-8.535156v-25.597657c0-4.714843 3.820313-8.535156 8.53125-8.535156 4.714844 0 8.535157 3.820313 8.535157 8.535156v25.597657c0 4.714843-3.820313 8.535156-8.535157 8.535156zm0 0"/><path d="m85.332031 93.867188c-4.710937 0-8.53125-3.820313-8.53125-8.535157v-8.53125c0-4.714843 3.820313-8.535156 8.53125-8.535156h8.535157c4.710937 0 8.53125 3.820313 8.53125 8.535156 0 4.710938-3.820313 8.53125-8.53125 8.53125 0 4.714844-3.820313 8.535157-8.535157 8.535157zm0 0"/><path d="m102.398438 281.601562h-17.066407c-4.710937 0-8.53125-3.820312-8.53125-8.535156 0-4.710937 3.820313-8.53125 8.53125-8.53125h17.066407c4.714843 0 8.535156 3.820313 8.535156 8.53125 0 4.714844-3.820313 8.535156-8.535156 8.535156zm0 0"/><path d="m153.601562 281.601562h-17.066406c-4.714844 0-8.535156-3.820312-8.535156-8.535156 0-4.710937 3.820312-8.53125 8.535156-8.53125h17.066406c4.710938 0 8.53125 3.820313 8.53125 8.53125 0 4.714844-3.820312 8.535156-8.53125 8.535156zm0 0"/><path d="m196.265625 281.601562h-8.53125c-4.714844 0-8.535156-3.820312-8.535156-8.535156 0-4.710937 3.820312-8.53125 8.535156-8.53125h8.53125c4.714844 0 8.535156 3.820313 8.535156 8.53125 0 4.714844-3.820312 8.535156-8.535156 8.535156zm0 0"/></g></svg>