<svg height="512pt" viewBox="0 -12 512 512" width="512pt" xmlns="http://www.w3.org/2000/svg"><path d="m336.238281 71.851562 20.242188 40.15625h-258.402344l79.121094-40 84.480469-42.636718 42.242187-21.363282zm0 0" fill="#d7e9ff"/><path d="m356.480469 112.007812-20.234375-40.15625h87.753906c22.078125 0 40 17.910157 40 40v80c0-22.089843-17.921875-40-40-40v.15625h-376c-22.078125 0-40-17.917968-40-40v-.15625c0-22.089843 17.921875-40 40-40v.15625h129.199219l-79.128907 40zm0 0" fill="#94c1ff"/><path d="m424 71.851562h-24.023438c22.078126 0 40 17.910157 40 40v43.367188c14.128907 6.175781 24.023438 20.238281 24.023438 36.632812v-80c0-22.082031-17.921875-40-40-40zm0 0" fill="#5c9eff"/><path d="m488 223.851562c8.878906 0 16 7.117188 16 16 0 8.796876-7.121094 16-16 16h-24v-32zm0 0" fill="#5c9eff"/><path d="m488 255.851562c8.878906 0 16-7.203124 16-16v112c0 8.796876-7.121094 16-16 16h-104l-40-54.089843 40-57.910157zm-56 56c0-8.882812-7.199219-16-16-16s-16 7.117188-16 16c0 8.796876 7.199219 16 16 16s16-7.203124 16-16zm0 0" fill="#94c1ff"/><path d="m416 295.851562c8.800781 0 16 7.117188 16 16 0 8.796876-7.199219 16-16 16s-16-7.203124-16-16c0-8.882812 7.199219-16 16-16zm0 0" fill="#d7e9ff"/><path d="m464 367.851562v72c0 22.078126-17.921875 40-40 40v.15625h-376c-22.078125 0-40-17.917968-40-40v-328c0 22.082032 17.921875 40 40 40h376v-.15625c22.078125 0 40 17.910157 40 40v64h-80l-40 57.910157 40 54.089843zm0 0" fill="#d7e9ff"/><path d="m439.976562 439.851562c0 22.078126-17.921874 40-40 40v.15625h24.023438v-.15625c22.078125 0 40-17.921874 40-40v-72h-24.023438zm0 0" fill="#94c1ff"/><path d="m424 151.851562v.15625h-22.480469c21.351563.832032 38.457031 18.289063 38.457031 39.84375v64h24.023438v-64c0-22.082031-17.921875-40-40-40zm0 0" fill="#94c1ff"/><path d="m303.921875 8.007812 21.359375 42.320313c-23.28125 11.761719-51.761719 2.402344-63.601562-20.957031zm0 0" fill="#94c1ff"/><g fill="#116fff"><path d="m464 447.824219c-4.425781 0-8-3.574219-8-8v-72c0-4.421875 3.574219-8 8-8s8 3.578125 8 8v72c0 4.417969-3.574219 8-8 8zm0 0"/><path d="m424 487.824219c-4.425781 0-8-3.574219-8-8 0-4.421875 3.574219-8 8-8 17.648438 0 32-14.351563 32-32 0-4.421875 3.574219-8 8-8s8 3.578125 8 8c0 26.464843-21.527344 48-48 48zm0 0"/><path d="m464 199.867188c-4.425781 0-8-3.578126-8-8 0-17.648438-14.351562-32-32-32-4.425781 0-8-3.578126-8-8 0-4.425782 3.574219-8 8-8 26.472656 0 48 21.527343 48 48 0 4.421874-3.574219 8-8 8zm0 0"/><path d="m464 119.867188c-4.425781 0-8-3.578126-8-8 0-17.648438-14.351562-32-32-32-4.425781 0-8-3.578126-8-8 0-4.425782 3.574219-8 8-8 26.472656 0 48 21.527343 48 48 0 4.421874-3.574219 8-8 8zm0 0"/><path d="m48.007812 160.007812c-26.472656 0-47.9999995-21.527343-47.9999995-48 0-4.421874 3.5781255-8 7.9999995-8 4.425782 0 8 3.578126 8 8 0 17.648438 14.351563 32 32 32 4.425782 0 8 3.578126 8 8 0 4.425782-3.574218 8-8 8zm0 0"/><path d="m8 119.867188c-4.425781 0-8-3.578126-8-8 0-26.472657 21.535156-48.007813 48.007812-48.007813 4.425782 0 8 3.574219 8 8 0 4.421875-3.574218 8-8 8-17.648437 0-32.007812 14.359375-32.007812 32.007813 0 4.421874-3.574219 8-8 8zm0 0"/><path d="m424 488.007812h-375.992188c-4.421874 0-8-3.574218-8-8 0-4.421874 3.578126-8 8-8h375.992188c4.425781 0 8 3.578126 8 8 0 4.425782-3.574219 8-8 8zm0 0"/><path d="m424 160.007812h-375.992188c-4.421874 0-8-3.574218-8-8 0-4.421874 3.578126-8 8-8h375.992188c4.425781 0 8 3.578126 8 8 0 4.425782-3.574219 8-8 8zm0 0"/><path d="m177.550781 80.007812h-129.542969c-4.421874 0-8-3.574218-8-8 0-4.421874 3.578126-8 8-8h129.542969c4.425781 0 8 3.578126 8 8 0 4.425782-3.574219 8-8 8zm0 0"/><path d="m8.007812 447.824219c-4.421874 0-7.9999995-3.574219-7.9999995-8v-327.816407c0-4.421874 3.5781255-8 7.9999995-8 4.425782 0 8 3.578126 8 8v327.816407c0 4.417969-3.574218 8-8 8zm0 0"/><path d="m408 120.007812h-343.992188c-4.421874 0-8-3.574218-8-8 0-4.421874 3.578126-8 8-8h343.992188c4.425781 0 8 3.578126 8 8 0 4.425782-3.574219 8-8 8zm0 0"/><path d="m504 247.824219c-4.425781 0-8-3.574219-8-8 0-4.414063-3.585938-8-8-8-4.425781 0-8-3.574219-8-8 0-4.421875 3.574219-8 8-8 13.230469 0 24 10.769531 24 24 0 4.417969-3.574219 8-8 8zm0 0"/><path d="m488 263.824219c-4.425781 0-8-3.574219-8-8 0-4.421875 3.574219-8 8-8 4.414062 0 8-3.582031 8-8 0-4.421875 3.574219-8 8-8s8 3.578125 8 8c0 13.234375-10.769531 24-24 24zm0 0"/><path d="m488 231.824219h-24c-4.425781 0-8-3.574219-8-8 0-4.421875 3.574219-8 8-8h24c4.425781 0 8 3.578125 8 8 0 4.425781-3.574219 8-8 8zm0 0"/><path d="m488 263.824219h-104c-4.425781 0-8-3.574219-8-8 0-4.421875 3.574219-8 8-8h104c4.425781 0 8 3.578125 8 8 0 4.425781-3.574219 8-8 8zm0 0"/><path d="m488 375.824219c-4.425781 0-8-3.574219-8-8 0-4.421875 3.574219-8 8-8 4.414062 0 8-3.582031 8-8 0-4.421875 3.574219-8 8-8s8 3.578125 8 8c0 13.234375-10.769531 24-24 24zm0 0"/><path d="m488 375.824219h-104c-4.425781 0-8-3.574219-8-8 0-4.421875 3.574219-8 8-8h104c4.425781 0 8 3.578125 8 8 0 4.425781-3.574219 8-8 8zm0 0"/><path d="m504 359.824219c-4.425781 0-8-3.574219-8-8v-112c0-4.421875 3.574219-8 8-8s8 3.578125 8 8v112c0 4.417969-3.574219 8-8 8zm0 0"/><path d="m464 263.824219c-4.425781 0-8-3.574219-8-8v-143.957031c0-4.425782 3.574219-8 8-8s8 3.574218 8 8v143.949218c0 4.425782-3.574219 8.007813-8 8.007813zm0 0"/><path d="m384.007812 375.824219c-2.457031 0-4.863281-1.117188-6.441406-3.238281l-40-54.015626c-2.621094-3.542968-1.878906-8.550781 1.671875-11.183593 3.546875-2.632813 8.554688-1.882813 11.1875 1.671875l40 54.015625c2.621094 3.542969 1.878907 8.550781-1.671875 11.183593-1.425781 1.054688-3.089844 1.566407-4.746094 1.566407zm0 0"/><path d="m343.992188 321.808594c-1.558594 0-3.152344-.460938-4.527344-1.414063-3.640625-2.503906-4.554688-7.496093-2.050782-11.128906l40-57.984375c2.507813-3.640625 7.496094-4.550781 11.128907-2.046875 3.640625 2.503906 4.554687 7.496094 2.050781 11.128906l-40 57.984375c-1.5625 2.246094-4.066406 3.460938-6.601562 3.460938zm0 0"/><path d="m416 335.824219c-13.230469 0-24-10.765625-24-24 0-13.230469 10.769531-24 24-24s24 10.769531 24 24c0 13.234375-10.769531 24-24 24zm0-32c-4.414062 0-8 3.585937-8 8 0 4.417969 3.585938 8 8 8s8-3.582031 8-8c0-4.414063-3.585938-8-8-8zm0 0"/><path d="m48.007812 488.007812c-26.472656 0-47.9999995-21.527343-47.9999995-48 0-4.421874 3.5781255-8 7.9999995-8 4.425782 0 8 3.578126 8 8 0 17.648438 14.351563 32 32 32 4.425782 0 8 3.578126 8 8 0 4.425782-3.574218 8-8 8zm0 0"/><path d="m98.113281 120.007812c-2.921875 0-5.746093-1.597656-7.152343-4.390624-1.992188-3.945313-.417969-8.757813 3.527343-10.75l205.816407-104c3.925781-2 8.757812-.417969 10.75 3.527343l52.539062 103.96875c1.992188 3.941407.414062 8.757813-3.53125 10.75-3.949219 2-8.765625.417969-10.75-3.527343l-48.929688-96.824219-198.671874 100.390625c-1.160157.585937-2.390626.855468-3.597657.855468zm0 0"/><path d="m303.9375 63.355469c-5.808594 0-11.625-.921875-17.296875-2.792969-14.03125-4.609375-25.425781-14.417969-32.089844-27.617188-1.992187-3.9375-.40625-8.75 3.539063-10.742187 3.902344-2.007813 8.75-.410156 10.742187 3.535156 4.734375 9.375 12.832031 16.351563 22.800781 19.625 9.96875 3.261719 20.605469 2.460938 29.992188-2.273437 3.941406-2.007813 8.757812-.40625 10.75 3.527344 1.992188 3.945312.410156 8.761718-3.527344 10.753906-7.863281 3.976562-16.359375 5.984375-24.910156 5.984375zm0 0"/><path d="m424 79.867188h-87.742188c-4.425781 0-8-3.578126-8-8 0-4.425782 3.574219-8 8-8h87.742188c4.425781 0 8 3.574218 8 8 0 4.421874-3.574219 8-8 8zm0 0"/></g></svg>