<svg height="512pt" viewBox="0 0 512 512" width="512pt" xmlns="http://www.w3.org/2000/svg"><path d="m503.464844 256c0 136.671875-110.792969 247.464844-247.464844 247.464844-4.265625 0-8.535156-.082032-12.714844-.339844h-.171875c-131.441406-6.910156-234.472656-115.503906-234.472656-247.125s103.03125-240.214844 234.472656-247.125h.171875c4.179688-.257812 8.449219-.339844 12.714844-.339844 136.671875 0 247.464844 110.792969 247.464844 247.464844zm0 0" fill="#a4c2f7"/><path d="m477.867188 256c-.003907 131.664062-103.097657 240.269531-234.582032 247.125h-.171875c-131.441406-6.910156-234.472656-115.503906-234.472656-247.125s103.03125-240.214844 234.472656-247.125h.171875c131.484375 6.855469 234.578125 115.460938 234.582032 247.125zm0 0" fill="#e3e7f2"/><path d="m273.476562 136.472656-17.476562-17.007812-17.476562 17.007812c-23.191407 21.554688-57.882813 25.066406-84.921876 8.59375v128.417969c.265626 35.515625 19.515626 68.175781 50.457032 85.617187l51.941406 32.167969 51.941406-32.167969c30.941406-17.441406 50.191406-50.101562 50.457032-85.617187v-128.417969c-27.039063 16.472656-61.730469 12.960938-84.921876-8.59375zm0 0" fill="#e3e7f2"/><path d="m315.734375 254.738281c0 32.988281-26.746094 59.730469-59.734375 59.730469s-59.734375-26.742188-59.734375-59.730469c0-32.992187 26.746094-59.734375 59.734375-59.734375s59.734375 26.742188 59.734375 59.734375zm0 0" fill="#e3e7f2"/><path d="m243.113281 503.125h.171875c4.179688.257812 8.449219.339844 12.714844.339844s8.667969-.117188 12.96875-.339844h-.253906c-131.441406-6.910156-234.472656-115.503906-234.472656-247.125s103.03125-240.214844 234.472656-247.125h.246094c-4.289063-.226562-8.609376-.339844-12.960938-.339844-4.265625 0-8.535156.082032-12.714844.339844h-.171875c-131.441406 6.910156-234.472656 115.503906-234.472656 247.125s103.03125 240.214844 234.472656 247.125zm0 0" fill="#fff"/><path d="m256 399.804688c-1.585938-.003907-3.140625-.445313-4.488281-1.28125l-51.941407-32.171876c-33.503906-18.945312-54.296874-54.378906-54.503906-92.867187v-128.417969c.007813-3.046875 1.636719-5.855468 4.273438-7.375 2.640625-1.523437 5.890625-1.519531 8.527344.003906 23.730468 14.53125 54.226562 11.53125 74.675781-7.339843l17.484375-17.007813c3.3125-3.21875 8.582031-3.21875 11.894531 0l17.476563 17.007813c20.449218 18.871093 50.945312 21.871093 74.675781 7.339843 2.640625-1.554687 5.910156-1.574218 8.570312-.050781 2.65625 1.527344 4.296875 4.359375 4.289063 7.421875v128.417969c-.207032 38.488281-21 73.921875-54.503906 92.867187l-51.941407 32.15625c-1.347656.839844-2.902343 1.289063-4.488281 1.296876zm-93.867188-241.265626v114.945313c.316407 32.550781 18.023438 62.441406 46.414063 78.363281l47.453125 29.386719 47.453125-29.386719c28.390625-15.921875 46.097656-45.8125 46.414063-78.363281v-114.945313c-28.226563 11.035157-60.28125 4.820313-82.339844-15.957031l-11.527344-11.167969-11.527344 11.203126c-22.070312 20.765624-54.121094 26.964843-82.339844 15.921874zm0 0" fill="#428dff"/><path d="m256 323.003906c-37.703125 0-68.265625-30.5625-68.265625-68.265625s30.5625-68.269531 68.265625-68.269531 68.265625 30.566406 68.265625 68.269531c-.042969 37.683594-30.582031 68.222657-68.265625 68.265625zm0-119.46875c-28.277344 0-51.199219 22.925782-51.199219 51.203125 0 28.277344 22.921875 51.199219 51.199219 51.199219s51.199219-22.921875 51.199219-51.199219c-.027344-28.265625-22.933594-51.171875-51.199219-51.203125zm0 0" fill="#428dff"/><path d="m247.464844 280.335938c-2.261719 0-4.429688-.898438-6.03125-2.5l-8.535156-8.53125c-3.230469-3.347657-3.1875-8.671876.105468-11.964844 3.292969-3.289063 8.613282-3.335938 11.960938-.101563l2.5 2.5 19.570312-19.566406c3.347656-3.234375 8.667969-3.1875 11.960938.101563 3.292968 3.292968 3.335937 8.613281.105468 11.964843l-25.601562 25.597657c-1.601562 1.601562-3.769531 2.5-6.035156 2.5zm0 0" fill="#428dff"/><path d="m0 256c.132812-38.402344 8.851562-76.289062 25.523438-110.882812 5.171874-10.792969 11.046874-21.238282 17.59375-31.257813 3.414062-4.921875 7.109374-9.625 10.652343-14.445313 3.496094-4.855468 7.335938-9.453124 11.492188-13.757812 15.863281-17.972656 34.261719-33.535156 54.613281-46.199219 20.25-12.847656 42.242188-22.71875 65.296875-29.3125 23.0625-6.480469 46.875-9.894531 70.828125-10.144531v17.066406c-22.367188.246094-44.605469 3.433594-66.140625 9.480469-21.503906 6.132813-42.011719 15.332031-60.894531 27.308594-19.007813 11.824219-36.179688 26.367187-50.96875 43.167969-3.894532 4.011718-7.484375 8.304687-10.738282 12.851562-3.300781 4.496094-6.78125 8.882812-9.957031 13.472656-6.097656 9.359375-11.578125 19.105469-16.410156 29.175782-15.554687 32.285156-23.695313 67.640624-23.824219 103.476562zm0 0" fill="#fff"/><g fill="#428dff"><path d="m12.425781 213.5625c-2.261719-.363281-4.574219.207031-6.40625 1.578125-1.835937 1.367187-3.039062 3.421875-3.332031 5.695313l-1.320312 8.710937-.515626 8.824219-.851562 17.628906h17.066406l.855469-16.460938.425781-8.234374 1.253906-8.140626c.566407-4.605468-2.597656-8.839843-7.175781-9.601562zm0 0"/><path d="m256 17.066406v-17.066406c-23.953125.25-47.765625 3.664062-70.828125 10.144531-23.046875 6.597657-45.027344 16.46875-65.269531 29.3125-20.355469 12.664063-38.753906 28.226563-54.613282 46.199219-4.167968 4.304688-8.023437 8.902344-11.527343 13.757812-3.542969 4.820313-7.253907 9.523438-10.652344 14.445313-6.546875 10.019531-12.425781 20.464844-17.59375 31.257813l-3.832031 7.960937c-.976563 2.097656-1.039063 4.503906-.171875 6.648437.863281 2.144532 2.578125 3.835938 4.738281 4.667969 4.289062 1.640625 9.121094-.292969 11.09375-4.445312l3.574219-7.425781c4.828125-10.070313 10.3125-19.816407 16.410156-29.175782 3.171875-4.589844 6.65625-8.976562 9.957031-13.472656 3.242188-4.542969 6.824219-8.839844 10.710938-12.851562 14.792968-16.785157 31.964844-31.316407 50.96875-43.125 18.882812-11.976563 39.390625-21.175782 60.894531-27.308594 21.53125-6.0625 43.769531-9.265625 66.140625-9.523438zm0 0"/><path d="m9.847656 186.300781c-.550781 2.253907-.25 4.636719.851563 6.679688l.984375 1.332031c.378906.433594.8125.816406 1.296875 1.136719.410156.347656.871093.636719 1.363281.851562.523438.230469 1.0625.421875 1.613281.570313 2.195313.511718 4.496094.207031 6.484375-.851563.9375-.574219 1.757813-1.316406 2.417969-2.195312 2-2.703125 2.207031-6.34375.519531-9.257813-.550781-.953125-1.269531-1.796875-2.117187-2.5-.835938-.726562-1.808594-1.277344-2.859375-1.621094-2.1875-.667968-4.550782-.476562-6.605469.539063-1.941406 1.207031-3.351563 3.105469-3.949219 5.316406zm0 0"/><path d="m256 512c-141.320312-.160156-255.839844-114.679688-256-256 0-4.710938 3.820312-8.535156 8.535156-8.535156 4.710938 0 8.53125 3.824218 8.53125 8.535156 0 131.960938 106.972656 238.933594 238.933594 238.933594s238.933594-106.972656 238.933594-238.933594-106.972656-238.933594-238.933594-238.933594c-4.710938 0-8.535156-3.820312-8.535156-8.53125 0-4.714844 3.824218-8.535156 8.535156-8.535156 141.386719 0 256 114.613281 256 256s-114.613281 256-256 256zm0 0"/><path d="m256 512c-94.105469 0-170.667969-114.839844-170.667969-256s76.5625-256 170.667969-256 170.667969 114.839844 170.667969 256-76.5625 256-170.667969 256zm0-494.933594c-84.691406 0-153.601562 107.1875-153.601562 238.933594s68.910156 238.933594 153.601562 238.933594 153.601562-107.1875 153.601562-238.933594-68.910156-238.933594-153.601562-238.933594zm0 0"/><path d="m256 128c-4.710938 0-8.535156-3.820312-8.535156-8.535156v-110.929688c0-4.714844 3.824218-8.535156 8.535156-8.535156s8.535156 3.820312 8.535156 8.535156v110.929688c0 4.714844-3.824218 8.535156-8.535156 8.535156zm0 0"/><path d="m256 512c-4.710938 0-8.535156-3.820312-8.535156-8.535156v-112.195313c0-4.710937 3.824218-8.53125 8.535156-8.53125s8.535156 3.820313 8.535156 8.53125v112.195313c0 4.714844-3.824218 8.535156-8.535156 8.535156zm0 0"/><path d="m426.667969 443.734375c-.542969 0-1.082031-.054687-1.613281-.15625-55.742188-10.613281-112.316407-16.273437-169.054688-16.910156-56.742188.636719-113.316406 6.296875-169.0625 16.910156-3.019531.636719-6.148438-.40625-8.179688-2.730469-2.03125-2.320312-2.652343-5.558594-1.621093-8.46875 1.03125-2.90625 3.550781-5.035156 6.59375-5.558594 56.800781-10.8125 114.449219-16.578124 172.269531-17.21875 57.820312.640626 115.46875 6.40625 172.269531 17.21875 4.320313.832032 7.300781 4.808594 6.886719 9.183594-.417969 4.378906-4.089844 7.726563-8.488281 7.730469zm0 0"/><path d="m256 102.398438c-57.820312-.640626-115.46875-6.40625-172.269531-17.21875-3.042969-.523438-5.5625-2.652344-6.59375-5.558594-1.03125-2.910156-.410157-6.148438 1.621093-8.46875 2.03125-2.324219 5.160157-3.367188 8.179688-2.730469 55.746094 10.613281 112.320312 16.273437 169.0625 16.910156 56.742188-.636719 113.316406-6.296875 169.0625-16.910156 3.019531-.636719 6.148438.40625 8.179688 2.730469 2.03125 2.320312 2.652343 5.558594 1.621093 8.46875-1.03125 2.90625-3.550781 5.035156-6.59375 5.558594-56.800781 10.8125-114.449219 16.578124-172.269531 17.21875zm0 0"/><path d="m503.464844 264.535156h-145.066406c-4.710938 0-8.53125-3.824218-8.53125-8.535156s3.820312-8.535156 8.53125-8.535156h145.066406c4.714844 0 8.535156 3.824218 8.535156 8.535156s-3.820312 8.535156-8.535156 8.535156zm0 0"/><path d="m153.601562 264.535156h-145.066406c-4.714844 0-8.535156-3.824218-8.535156-8.535156s3.820312-8.535156 8.535156-8.535156h145.066406c4.710938 0 8.53125 3.824218 8.53125 8.535156s-3.820312 8.535156-8.53125 8.535156zm0 0"/></g></svg>