<?xml version="1.0" encoding="windows-1252"?>
<!-- Generator: Adobe Illustrator 16.0.0, SVG Export Plug-In . SVG Version: 6.00 Build 0)  -->
<!DOCTYPE svg PUBLIC "-//W3C//DTD SVG 1.1//EN" "http://www.w3.org/Graphics/SVG/1.1/DTD/svg11.dtd">
<svg version="1.1" id="Capa_1" xmlns="http://www.w3.org/2000/svg" xmlns:xlink="http://www.w3.org/1999/xlink" x="0px" y="0px" width="102.64px" height="102.641px" viewBox="0 0 102.64 102.641" style="enable-background:new 0 0 102.64 102.641;" xml:space="preserve">
<g>
	<path id="path2165" d="M50.051,102.606c-0.708-0.155-22.016-17.029-21.887-17.332c0.116-0.271,5.177-4.323,30.34-24.286   l13.38-10.617L71.745,48.9c-0.505-5.367-4.002-11.184-8.607-14.314c-3.496-2.375-6.525-3.37-10.772-3.534   c-4.746-0.183-8.378,0.759-11.971,3.107c-5.415,3.537-8.855,9.26-9.37,15.584l-0.139,1.71l8.837,7.118   c4.98,4.011,8.788,7.232,8.725,7.38c-0.137,0.323-21.953,17.682-22.343,17.777C25.866,83.787,3.971,66.811,2.307,65.275   c-0.922-0.85-1.862-5.537-2.21-11.027c-0.806-12.682,3.535-25.966,11.657-35.673C20.028,8.688,31.087,2.442,43.901,0.42   c3.566-0.563,11.393-0.56,14.853,0.004C73.199,2.78,85.209,10.201,93.38,21.819c7.971,11.332,11.023,25.952,8.264,39.562   c-0.395,1.946-0.643,2.68-1.036,3.057c-0.815,0.785-49.415,38.022-49.788,38.149C50.636,102.65,50.29,102.658,50.051,102.606   L50.051,102.606z"/>
</g>
<g>
</g>
<g>
</g>
<g>
</g>
<g>
</g>
<g>
</g>
<g>
</g>
<g>
</g>
<g>
</g>
<g>
</g>
<g>
</g>
<g>
</g>
<g>
</g>
<g>
</g>
<g>
</g>
<g>
</g>
</svg>